<?xml version="1.0" encoding="UTF-8"?>
<svg width="200px" height="190px" viewBox="0 0 200 190" version="1.1" xmlns="http://www.w3.org/2000/svg" xmlns:xlink="http://www.w3.org/1999/xlink">
    <!-- Generator: Sketch 54 (76480) - https://sketchapp.com -->
    <title>Icon/Conectividad-4 Copy 6</title>
    <desc>Created with Sketch.</desc>
    <g id="Page-15" stroke="none" stroke-width="1" fill="none" fill-rule="evenodd">
        <g id="Icon/Sostenibilidad-AV" transform="translate(0.000000, -5.000000)">
            <g id="Group-25-Copy-2" transform="translate(0.000000, 5.000000)">
                <path d="M147.327679,35.5764786 C176.37126,35.5764786 200,59.0135205 200,87.8214728 C200,111.873265 183.205267,132.92909 159.802936,138.584793 C160.345558,135.317834 160.620031,132.043348 160.620031,128.824064 C160.620031,128.500379 160.609913,128.179203 160.598529,127.856773 C177.853669,122.212362 189.819189,105.888859 189.819189,87.8214728 C189.819189,64.5814019 170.756572,45.6746934 147.327679,45.6746934 C146.793911,45.6746934 146.214608,45.7010399 145.580916,45.7311501 C145.15719,45.7512236 144.747377,45.771297 144.352743,45.783843 C142.547796,45.7951343 139.340126,45.2656963 137.656605,41.0552839 C129.159315,22.2489428 110.275043,10.0969602 89.5491427,10.0969602 C82.4343383,10.0969602 75.7268168,11.4193007 69.6112471,14.0275984 C63.7233511,16.5405471 58.5222709,20.1813745 54.150935,24.8509676 C45.228654,34.3821066 40.3159606,47.7573169 40.3159606,62.5150881 C40.3159606,66.2688288 37.9317105,68.8407434 33.2302477,70.1568109 C27.0501704,71.8856393 21.3039381,75.7159101 17.047704,80.9400331 C13.9159251,84.7866136 10.1820758,91.1436337 10.1820758,99.5945685 C10.1820758,115.393651 22.3297348,128.458977 38.0506068,129.846557 C38.1125847,133.20761 38.4718032,136.622611 39.1232031,140.028829 C17.4107171,139.151869 -4.81747975e-12,121.326619 -4.81747975e-12,99.5945685 C-4.81747975e-12,90.5702849 3.15834076,81.9248882 9.12971712,74.5943044 C14.4041588,68.1155889 21.5695575,63.2088778 29.3054054,60.7812413 L30.1541225,60.5152677 L30.1882735,59.6332892 C30.8042575,43.4791566 36.6655915,28.6875114 46.6920902,17.9820739 C57.5483332,6.38462107 72.768323,1.26476607e-12 89.5491427,1.26476607e-12 C113.329665,1.26476607e-12 135.481056,13.690113 145.981875,34.8776706 L146.333504,35.58777 L147.327679,35.5764786 Z M148.047761,128.695594 C148.047761,128.736995 148.051555,128.780906 148.051555,128.824817 C148.051555,133.089176 147.459604,137.283279 146.365505,141.320558 C143.4614,152.031014 136.905661,161.598536 127.611513,168.180128 C120.504297,173.211044 112.299189,176.200737 103.667824,176.954748 L107.563575,181.980645 C109.254685,184.161127 108.843607,187.29008 106.642761,188.96747 C105.729536,189.663769 104.653145,190 103.585608,190 C102.076638,190 100.587904,189.331302 99.5975234,188.054127 L89.4318908,174.934854 C89.230779,174.696481 89.0536994,174.440544 88.900652,174.168298 C88.8589118,174.095531 88.8070528,174.027783 88.7678423,173.952508 C88.7640478,173.94498 88.7615181,173.938707 88.7577235,173.93118 C88.4453045,173.33023 88.2694898,172.680351 88.2176308,172.022945 C88.1252965,170.829827 88.4592179,169.609109 89.2358384,168.607944 L89.8670006,167.793713 L99.5962586,155.235243 C100.587904,153.958068 102.077902,153.288115 103.585608,153.288115 C104.653145,153.288115 105.729536,153.624346 106.642761,154.320645 C108.843607,155.998035 109.254685,159.126989 107.56484,161.308725 L103.174531,166.97321 C109.876993,166.319567 116.245533,163.979752 121.772946,160.067933 C128.399517,155.377012 133.26794,148.772837 135.865951,141.320558 C137.253496,137.343499 138.003554,133.128069 138.003554,128.824817 C138.003554,128.787179 138.001025,128.749541 138.001025,128.713158 C137.964344,117.004046 132.48879,105.929759 123.255355,98.6995423 C122.769651,98.3181462 122.278888,97.9392592 121.772946,97.5804458 C120.561216,96.7235591 119.868076,95.4263105 119.716293,94.0663323 C119.586013,92.8920337 119.855427,91.6675515 120.602956,90.6287489 C120.984942,90.0968017 121.469381,89.6928229 121.991766,89.3591013 C122.808862,88.8397001 123.738529,88.5398525 124.693494,88.5398525 C125.704113,88.5398525 126.726115,88.8409547 127.611513,89.4669963 C127.63428,89.4858152 127.658312,89.5046341 127.682345,89.5221984 C140.401718,98.5627917 148.004756,113.192594 148.047761,128.695594 Z" id="Combined-Shape" fill="#003043"></path>
                <path d="M116.553652,86.866477 C116.549857,86.8137841 116.543533,86.7636004 116.541003,86.7109076 C116.535944,86.6431596 116.533414,86.5766662 116.52456,86.5101728 C116.499263,86.3345298 116.454993,86.1639052 116.410723,85.9920261 C116.339892,85.712252 116.243763,85.4450238 116.126131,85.1828139 C116.080597,85.0837011 116.04771,84.97957 115.995851,84.8817117 C115.895928,84.6972866 115.775767,84.5279167 115.654341,84.3560375 C115.613865,84.2983262 115.583509,84.2368512 115.540504,84.1816491 L115.483585,84.1076282 C115.449434,84.064972 115.419078,84.0185521 115.382397,83.9771506 L113.598953,81.6737188 L105.180084,70.8102026 C104.190968,69.5342821 102.699705,68.8630751 101.191999,68.8630751 C100.124462,68.8630751 99.0468059,69.2005605 98.1335812,69.8956047 C95.9327351,71.5742494 95.5216575,74.703203 97.2115026,76.8836848 L100.032127,80.5232575 C99.7981293,80.5207483 99.5653961,80.4994202 99.3313981,80.4994202 C89.117701,80.4994202 79.3378489,83.6007728 71.0479949,89.4697564 C71.0454652,89.4722656 71.0429355,89.4760294 71.0391409,89.4785385 C58.2780276,98.5203865 50.6496923,113.181554 50.6142764,128.712154 C50.6142764,128.749792 50.6104818,128.78743 50.6104818,128.823813 C50.6104818,133.090682 51.2024336,137.284785 52.2965324,141.320809 C55.2006375,152.028755 61.7563764,161.596277 71.0505246,168.180379 C71.9371873,168.80642 72.9566598,169.106268 73.9672782,169.106268 C75.2156893,169.106268 76.4362735,168.627014 77.3823844,167.752563 C77.6239715,167.527991 77.8604992,167.295891 78.0590813,167.018626 C78.7686645,166.035026 79.041873,164.885819 78.9583926,163.766722 C78.8534097,162.338996 78.1564751,160.965217 76.8903561,160.066929 C70.2637853,155.374753 65.3940969,148.771833 62.7960865,141.320809 C61.4085416,137.342496 60.6597479,133.12832 60.6597479,128.823813 C60.6597479,128.78743 60.6622776,128.749792 60.6622776,128.712154 C60.6989584,116.392056 66.7525503,104.764493 76.8802373,97.5869697 C76.882767,97.5844605 76.8852967,97.5832059 76.8878264,97.5819513 C83.4625382,92.9274132 91.2236831,90.4659028 99.3313981,90.4659028 C100.422967,90.4659028 101.508212,90.5248687 102.589662,90.6139447 L97.2115026,97.5556049 C95.5216575,99.7373412 95.9327351,102.86504 98.1335812,104.543685 C99.0468059,105.239984 100.123197,105.57496 101.190734,105.57496 C102.699705,105.57496 104.189703,104.906262 105.180084,103.627832 L109.171963,98.4764757 L114.122602,92.0868363 L115.540504,90.2551313 C115.923755,89.7620764 116.190639,89.2138195 116.361394,88.64298 C116.367718,88.6241611 116.375308,88.6116151 116.381632,88.5940509 C116.39428,88.5526493 116.39428,88.5112478 116.405664,88.4685916 C116.467642,88.2314736 116.513177,87.9918465 116.538474,87.7497101 C116.549857,87.6468335 116.558711,87.5464661 116.563771,87.4435896 C116.572625,87.2503823 116.567565,87.0584297 116.553652,86.866477" id="Fill-26" fill="#00FF93"></path>
            </g>
        </g>
    </g>
</svg>