<?xml version="1.0" encoding="UTF-8"?>
<svg width="195px" height="200px" viewBox="0 0 195 200" version="1.1" xmlns="http://www.w3.org/2000/svg" xmlns:xlink="http://www.w3.org/1999/xlink">
    <!-- Generator: Sketch 54 (76480) - https://sketchapp.com -->
    <title>Icon/Conectividad-4 Copy 19</title>
    <desc>Created with Sketch.</desc>
    <g id="Page-15" stroke="none" stroke-width="1" fill="none" fill-rule="evenodd">
        <g id="Icon/Conectividad-AV" transform="translate(-5.000000, 0.000000)">
            <path d="M75.9580649,123.686688 L75.9580649,116.758591 C75.9580649,112.13649 72.1344392,108.3774 67.4358507,108.3774 L45.0234425,108.3774 C40.324854,108.3774 36.5012283,112.13649 36.5012283,116.758591 L36.5012283,123.686688 C36.5012283,128.308789 40.324854,132.069142 45.0234425,132.069142 L67.4358507,132.069142 C72.1344392,132.069142 75.9580649,128.308789 75.9580649,123.686688 Z M86.2366287,116.758591 L86.2366287,123.686688 C86.2366287,133.88235 77.8030671,142.177619 67.4358507,142.177619 L45.0234425,142.177619 C34.6562261,142.177619 26.2226645,133.88235 26.2226645,123.686688 L26.2226645,116.758591 C26.2226645,106.562928 34.6562261,98.2689234 45.0234425,98.2689234 L67.4358507,98.2689234 C77.8030671,98.2689234 86.2366287,106.562928 86.2366287,116.758591 Z M130.67086,167.414062 L130.67086,92.1652989 L139.818782,92.1652989 L139.818782,167.414062 C139.818782,178.529596 137.11295,186.572152 131.545823,192.001668 C126.028803,197.384432 117.89589,200 106.683262,200 L38.1355199,200 C26.9241765,200 18.7912629,197.384432 13.2742438,192.001668 C7.70711673,186.572152 5,178.529596 5,167.414062 L5,32.5859378 C5,21.7660772 7.69812299,13.8220782 13.2459778,8.30411352 C18.8644977,2.71412596 27.006405,7.10542736e-13 38.1355199,7.10542736e-13 L106.683262,7.10542736e-13 C117.919017,7.10542736e-13 126.075057,2.65726578 131.616488,8.12847874 C136.175031,12.6280144 138.780647,18.8219834 139.564387,27.0300664 L130.349655,27.0300664 C129.694396,21.4034356 127.9843,17.2892856 125.135853,14.4791292 C121.39831,10.7895352 115.362224,8.9952806 106.683262,8.9952806 L38.1355199,8.9952806 C21.3236441,8.9952806 14.1492066,16.0509973 14.1492066,32.5859378 L14.1492066,167.414062 C14.1492066,184.391249 20.8739569,191.004719 38.1355199,191.004719 L106.683262,191.004719 C123.946109,191.004719 130.67086,184.391249 130.67086,167.414062 Z M72.4097762,157.458603 C78.9752088,157.458603 82.7423025,161.177258 82.7423025,167.66311 C82.7423025,170.824536 81.8467826,173.332702 80.0788696,175.111793 C78.2891147,176.912366 75.6372453,177.86509 72.4097762,177.86509 C69.1823072,177.86509 66.5304378,176.912366 64.739398,175.111793 C62.9727699,173.332702 62.07725,170.824536 62.07725,167.66311 C62.07725,161.177258 65.8443436,157.458603 72.4097762,157.458603 Z" id="Combined-Shape" fill="#002E44" fill-rule="evenodd"></path>
            <path d="M163.333309,53.8096953 C162.331149,53.8096953 161.346976,53.6176342 160.411627,53.2373028 C158.907102,52.62574 157.610718,51.512544 156.757598,50.1024115 C156.039383,48.9184562 155.659076,47.5904551 155.659076,46.262454 C155.659076,42.1015523 159.102395,38.7190033 163.333309,38.7190033 C163.762439,38.7190033 164.215981,38.7632279 164.71963,38.8542042 C167.411329,39.3406746 169.646917,41.2334869 170.555285,43.7972492 C170.858502,44.6564697 171.006257,45.4613572 171.006257,46.262454 C171.006257,50.4233556 167.564223,53.8096953 163.333309,53.8096953 L163.333309,53.8096953 Z M163.499051,63.9497609 C163.163713,68.651466 159.151218,72.3334786 154.365262,72.3334786 L80.3673118,72.3334786 C75.3141129,72.3334786 71.2026874,68.2888244 71.2026874,63.3205082 L71.2026874,56.3911475 C71.2026874,51.4203041 75.3141129,47.3781771 80.3673118,47.3781771 L146.68589,47.3781771 L146.836214,48.4711561 C147.898761,56.1788695 154.401237,62.1213902 162.295174,62.6028064 L163.588988,62.6811471 L163.499051,63.9497609 Z M163.333309,29.8740863 C157.507933,29.8740863 152.021749,32.9559081 149.017839,37.916643 L148.643956,38.53326 L80.3673118,38.53326 C70.3547059,38.53326 62.2089441,46.5442277 62.2089441,56.3911475 L62.2089441,63.3205082 C62.2089441,73.167428 70.3547059,81.1783957 80.3673118,81.1783957 L154.365262,81.1783957 C164.376583,81.1783957 172.522345,73.167428 172.522345,63.3205082 L172.522345,59.9253236 L173.055545,59.5475193 C177.403378,56.4606433 180,51.4948542 180,46.262454 C180,37.2254759 172.522345,29.8740863 163.333309,29.8740863 L163.333309,29.8740863 Z" id="Fill-19" fill="#00FF93" fill-rule="evenodd"></path>
            <path d="M165,19.7 C162.404262,19.7 160.3,17.5957383 160.3,15 C160.3,12.4042617 162.404262,10.3 165,10.3 C184.161929,10.3 199.7,25.8363124 199.7,45 C199.7,47.5957383 197.595738,49.7 195,49.7 C192.404262,49.7 190.3,47.5957383 190.3,45 C190.3,31.0280273 178.97069,19.7 165,19.7 Z" id="Path-Copy-2" fill="#002E44" fill-rule="nonzero"></path>
        </g>
    </g>
</svg>