<?xml version="1.0" encoding="UTF-8"?>
<svg width="200px" height="180px" viewBox="0 0 200 180" version="1.1" xmlns="http://www.w3.org/2000/svg" xmlns:xlink="http://www.w3.org/1999/xlink">
    <!-- Generator: Sketch 54 (76480) - https://sketchapp.com -->
    <title>Icon/Conectividad-4 Copy 11</title>
    <desc>Created with Sketch.</desc>
    <g id="Page-15" stroke="none" stroke-width="1" fill="none" fill-rule="evenodd">
        <g id="Icon/Relevancia-AV" transform="translate(0.000000, -10.000000)">
            <path d="M27.7133217,19.9676743 C17.96631,19.9676743 10.0342419,27.8458748 10.0342419,37.5294704 L10.0342419,136.62435 C10.0342419,146.3067 17.96631,154.186146 27.7133217,154.186146 L61.1198214,154.186146 C67.191792,154.186146 72.898767,156.533534 77.190914,160.798452 L94.9101308,178.400119 C97.1076298,180.580548 100.682328,180.580548 102.879827,178.400119 L120.599044,160.798452 C124.891191,156.533534 130.598166,154.186146 136.668883,154.186146 L172.287933,154.186146 C182.034944,154.186146 189.965758,146.3067 189.965758,136.62435 L189.965758,37.5294704 C189.965758,27.8458748 182.034944,19.9676743 172.287933,19.9676743 L27.7133217,19.9676743 Z M98.8949791,190 C94.8825367,190 90.8700942,188.482422 87.8159218,185.447265 L70.096705,167.846844 C67.6985212,165.46457 64.5113951,164.153821 61.1198214,164.153821 L27.7133217,164.153821 C12.4324257,164.153821 2.87059265e-12,151.803872 2.87059265e-12,136.62435 L2.87059265e-12,37.5294704 C2.87059265e-12,22.3499484 12.4324257,10 27.7133217,10 L172.287933,10 C187.567574,10 200,22.3499484 200,37.5294704 L200,136.62435 C200,151.803872 187.567574,164.153821 172.287933,164.153821 L136.668883,164.153821 C133.278563,164.153821 130.091437,165.46457 127.693253,167.846844 L109.974036,185.447265 C106.91861,188.482422 102.907422,190 98.8949791,190 L98.8949791,190 Z" id="Combined-Shape" fill="#002E44"></path>
            <path d="M99.7596799,125.571321 L100.296512,125.566337 C100.3078,125.565091 100.31658,125.563845 100.326615,125.561353 L100.646456,125.492825 C101.320005,125.350786 102.165389,124.962047 102.9305,124.415071 C103.852396,123.75845 105.431535,122.344286 106.89528,120.86907 C106.993114,120.759426 107.093456,120.652274 107.196307,120.547613 C114.599069,112.960967 118.714363,107.843812 124.115293,99.5108364 C130.687722,89.3712197 135.174282,79.418497 137.449547,69.9280251 C138.412834,65.9035766 138.579653,62.3575765 137.943733,59.3847176 C137.385578,56.7756789 136.235403,54.7597168 134.426731,53.2184651 C132.174044,51.2996878 128.948035,50.1409457 125.345742,49.9577897 C121.094987,49.7297791 116.579578,50.8673399 112.313771,53.220957 C110.337025,54.3099255 108.3076,55.4699135 106.108846,56.7669572 L105.977147,56.8454526 C102.337226,58.8963016 97.5910294,58.882596 93.9623967,56.8068279 L93.8093745,56.7133809 C91.663301,55.4499782 89.6426556,54.293728 87.6960126,53.222203 C83.427697,50.8685859 78.9311024,49.7409928 74.6615325,49.9577897 C71.0579854,50.1409457 67.8332309,51.2996878 65.5817979,53.2184651 C63.7718715,54.7609627 62.619188,56.7781708 62.0572704,59.3897015 C61.4200961,62.3613143 61.5844068,65.9073145 62.5489483,69.9280251 C64.8267212,79.4322025 69.3120273,89.3849253 75.8744215,99.5095904 C81.2778607,107.84755 85.3944084,112.964705 92.813476,120.566302 C94.0639934,121.847148 95.9316166,123.598967 97.0755202,124.413825 C97.8431397,124.962047 98.6872703,125.350786 99.4548898,125.511515 L99.6631003,125.556369 C99.6894402,125.562599 99.7157801,125.567583 99.7396114,125.570075 L99.7596799,125.571321 Z M99.8951422,135.547717 C99.7496457,135.547717 99.6003863,135.545225 99.4611612,135.538995 L99.2692563,135.529027 C98.5894365,135.491649 97.9334479,135.396956 97.3188506,135.249933 C95.1502001,134.77273 93.0756206,133.833277 91.2217944,132.510068 C88.94653,130.887829 86.1469766,128.055764 85.6101446,127.506296 C77.6655336,119.365198 73.2492129,113.873009 67.4368783,104.90584 C60.2586326,93.831754 55.3293113,82.8411471 52.7868852,72.2367876 C51.4749081,66.7645345 51.2917832,61.7420726 52.2437819,57.3101954 C53.2672746,52.549385 55.556336,48.6271052 59.0495064,45.6517544 C62.9766578,42.3051077 68.3387058,40.3003593 74.1460233,40.002575 C80.2932507,39.7047907 86.6524515,41.2447964 92.5651285,44.5054718 C94.5970625,45.6255892 96.7017447,46.8291859 98.9995861,48.1847896 C99.5953692,48.5124769 100.409397,48.5124769 101.000163,48.1897734 C103.267902,46.8503672 105.381364,45.6430327 107.444655,44.5054718 C113.353569,41.2460423 119.717787,39.7035448 125.862506,40.002575 C131.667315,40.3003593 137.030617,42.3051077 140.959023,45.6517544 C144.452193,48.6283511 146.741255,52.5518769 147.75973,57.3126873 C148.706712,61.7420726 148.522332,66.7632885 147.21161,72.2355417 C144.672946,82.8274416 139.739862,93.8192944 132.552837,104.907086 C126.76057,113.843106 122.355538,119.327819 114.451064,127.432784 L114.190174,127.716863 C113.460183,128.456962 110.91274,130.99249 108.78548,132.510068 C106.883992,133.866918 104.750461,134.820077 102.61693,135.264884 C102.076335,135.396956 101.416584,135.491649 100.733001,135.529027 L100.561165,135.538995 C100.394346,135.543979 100.204949,135.542733 100.000502,135.547717 L99.8951422,135.547717 Z" id="Fill-3" fill="#00FF93"></path>
        </g>
    </g>
</svg>