<?xml version="1.0" encoding="UTF-8"?>
<svg width="180px" height="200px" viewBox="0 0 180 200" version="1.1" xmlns="http://www.w3.org/2000/svg" xmlns:xlink="http://www.w3.org/1999/xlink">
    <!-- Generator: Sketch 54 (76480) - https://sketchapp.com -->
    <title>Icon/Conectividad-4 Copy 13</title>
    <desc>Created with Sketch.</desc>
    <g id="Page-15" stroke="none" stroke-width="1" fill="none" fill-rule="evenodd">
        <g id="Icon/Productividad-BV" transform="translate(-10.000000, 0.000000)">
            <path d="M98.9615567,123.890721 C107.786391,123.890721 111.550664,120.142336 111.550664,111.355137 C111.550664,102.561668 107.786391,98.8107749 98.9615567,98.8107749 C90.1430148,98.8107749 86.3812592,102.561668 86.3812592,111.355137 C86.3812592,120.142336 90.1430148,123.890721 98.9615567,123.890721 Z M139.448569,63.5704343 C141.411881,61.6115925 144.603521,61.6115925 146.566832,63.5704343 C148.53392,65.529276 148.53392,68.7058101 146.566832,70.6646518 L118.223407,98.9073375 C120.145187,102.287029 121.13817,106.440476 121.13817,111.355137 C121.13817,118.470674 119.105639,124.027414 115.094693,127.876124 C111.24484,131.570585 105.815528,133.44415 98.9615567,133.44415 C92.1063266,133.44415 86.6795315,131.570585 82.8309371,127.87487 C78.825026,124.02616 76.7937535,118.46942 76.7937535,111.355137 C76.7937535,104.240855 78.8237675,98.6816067 82.8309371,94.8328965 C86.678273,91.1334194 92.1075851,89.2573457 98.9615567,89.2573457 C103.669729,89.2573457 107.688226,90.162777 111.001944,91.917207 L139.448569,63.5704343 Z M98.9443148,190.184472 C151.456611,190.184472 178.082139,163.668627 178.082139,111.371816 C178.082139,59.047416 151.456611,32.5152682 98.9443148,32.5152682 C46.462223,32.5152682 19.8492806,59.047416 19.8492806,111.371816 C19.8492806,163.668627 46.462223,190.184472 98.9443148,190.184472 Z M181.395857,43.6864348 L177.528385,39.8113894 L168.396468,48.9121029 C181.35055,63.8216225 187.932678,84.7832357 187.932678,111.371816 C187.932678,140.641577 179.982524,163.114333 164.299942,178.160545 C149.198803,192.653716 127.209711,200 98.9443148,200 C70.6801769,200 48.697378,192.652462 33.6075652,178.159291 C17.9426028,163.115587 10,140.644085 10,111.371816 C10,82.0982932 17.9426028,59.6205214 33.6063067,44.5655309 C47.7962682,30.9263741 68.0787888,23.610188 93.9366113,22.7837624 L93.9366113,10.0324802 L76.6947069,10.0324802 C73.9146071,10.0324802 71.6605742,7.78645866 71.6605742,5.01624008 C71.6605742,2.24602149 73.9146071,7.95807864e-13 76.6947069,7.95807864e-13 L121.236713,7.95807864e-13 C124.016813,7.95807864e-13 126.270846,2.24602149 126.270846,5.01624008 C126.270846,7.78645866 124.016813,10.0324802 121.236713,10.0324802 L104.004877,10.0324802 L104.004877,22.7850165 C128.055446,23.5625337 147.277023,29.9557317 161.268136,41.8279179 L170.431516,32.6971069 L166.628229,28.8860185 C164.668693,26.9221605 164.677502,23.7443724 166.649624,21.791801 C168.620487,19.8379754 171.808351,19.8467539 173.769146,21.8118659 L188.536774,36.6122823 C190.49631,38.5761403 190.486242,41.7539283 188.515379,43.7064998 C187.533723,44.6796504 186.248761,45.1649716 184.966316,45.1649716 C183.672544,45.1649716 182.38003,44.672126 181.395857,43.6864348 Z" id="Combined-Shape" fill="#FFFFFF"></path>
            <path d="M102.487715,70.1877328 L95.4449634,70.1877328 C92.4848933,70.1877328 89.531116,70.5012478 86.6666945,71.1194994 C83.9495214,71.7063995 82.2228139,74.3762932 82.8118074,77.0838088 C83.3995424,79.7913244 86.0839936,81.5081326 88.7973911,80.9249947 C90.9633267,80.4572303 93.1997402,80.2202129 95.4449634,80.2202129 L102.487715,80.2202129 C104.81726,80.2202129 107.135478,80.4747871 109.380701,80.9776652 C109.751968,81.0616872 110.123236,81.1018171 110.489469,81.1018171 C112.792585,81.1018171 114.870423,79.5166853 115.39649,77.1853877 C116.006878,74.4828884 114.302824,71.7979458 111.589427,71.1909808 C108.620547,70.5250749 105.558536,70.1877328 102.487715,70.1877328" id="Fill-9" fill="#00FF93"></path>
            <path d="M87.9297584,64.4159215 C89.8804848,64.173888 91.8790355,64.049736 93.8700349,64.049736 L104.061637,64.049736 C109.808099,64.049736 115.422416,65.0605084 120.749786,67.0544638 C121.333746,67.2714162 121.931549,67.3742491 122.518026,67.3742491 C124.556849,67.3742491 126.474854,66.1327297 127.232491,64.1212174 C128.210371,61.5265673 126.891428,58.6347049 124.29004,57.6603002 C117.826214,55.2437266 111.021325,54.0172559 104.061637,54.0172559 L93.8700349,54.0172559 C91.462461,54.0172559 89.0435602,54.166489 86.6787764,54.4624472 C83.9200717,54.8060596 81.9643111,57.3129256 82.3091492,60.0618252 C82.6552459,62.8107247 85.1609854,64.7683124 87.9297584,64.4159215" id="Fill-11" fill="#00FF93"></path>
        </g>
    </g>
</svg>